<?xml version="1.0" standalone="no"?>
<!DOCTYPE svg PUBLIC "-//W3C//DTD SVG 20010904//EN"
 "http://www.w3.org/TR/2001/REC-SVG-20010904/DTD/svg10.dtd">
<svg version="1.0" xmlns="http://www.w3.org/2000/svg"
 width="192.000000pt" height="192.000000pt" viewBox="0 0 192.000000 192.000000"
 preserveAspectRatio="xMidYMid meet">
<metadata>
Created by potrace 1.11, written by Peter Selinger 2001-2013
</metadata>
<g transform="translate(0.000000,192.000000) scale(0.100000,-0.100000)"
fill="#000000" stroke="none">
<path d="M653 1340 c-23 -14 -43 -43 -72 -103 -42 -88 -72 -118 -119 -119
l-28 -1 28 -28 c37 -37 37 -59 -2 -59 -36 0 -40 -15 -7 -24 31 -7 75 -52 91
-91 20 -47 66 -96 111 -116 41 -19 120 -23 165 -9 23 7 22 8 -9 9 -80 2 -153
64 -194 164 -15 35 -15 37 4 37 19 0 19 1 2 27 -13 19 -14 28 -5 31 6 2 12 12
12 22 0 18 36 47 52 42 4 -1 12 7 18 19 l11 20 17 -21 c13 -16 31 -22 79 -25
88 -5 118 -24 39 -25 -93 0 -166 -56 -166 -127 0 -27 34 -77 73 -107 42 -32
45 -32 40 -3 -4 21 1 25 39 35 23 7 68 13 99 15 69 4 79 10 79 50 0 35 16 27
23 -13 2 -14 5 2 6 36 2 115 -47 212 -129 254 -21 10 -66 24 -100 29 -75 12
-107 31 -117 71 l-8 30 -32 -20z"/>
<path d="M490 1240 c-8 -5 -10 -10 -5 -10 6 0 17 5 25 10 8 5 11 10 5 10 -5 0
-17 -5 -25 -10z"/>
<path d="M550 1226 c-6 -8 -31 -22 -55 -32 -38 -14 -42 -19 -33 -34 11 -17 15
-15 54 18 24 19 46 42 48 49 7 17 1 17 -14 -1z"/>
<path d="M1153 1143 c-23 -8 -54 -29 -69 -46 -24 -28 -26 -37 -21 -88 6 -64
-14 -185 -26 -156 -4 10 -7 27 -7 38 0 27 -11 24 -41 -14 -41 -50 -135 -96
-236 -113 -49 -9 -92 -19 -97 -24 -5 -5 9 -4 30 1 22 4 82 11 134 15 52 3 114
13 138 21 38 14 44 14 60 1 9 -9 47 -25 84 -37 73 -24 95 -41 53 -41 -14 0
-42 -7 -62 -15 -46 -19 -56 -11 -12 10 l34 15 -40 -6 c-49 -7 -103 -34 -135
-68 l-24 -27 64 2 c61 2 194 44 227 71 15 12 110 -53 205 -140 l62 -57 -49 64
c-73 93 -189 197 -277 249 -76 44 -78 46 -78 84 0 32 7 46 40 80 22 23 42 50
46 60 3 10 11 18 19 18 7 0 16 14 19 30 3 17 9 44 12 60 6 34 5 34 -53 13z
m-70 -148 c-3 -9 -8 -14 -10 -11 -3 3 -2 9 2 15 9 16 15 13 8 -4z"/>
<path d="M815 733 c-101 -8 -281 -40 -272 -49 2 -2 37 3 78 11 41 9 157 19
259 22 135 5 171 9 135 14 -51 7 -128 8 -200 2z"/>
<path d="M1437 662 c-22 -25 -21 -45 3 -67 29 -27 74 -10 78 28 6 53 -46 77
-81 39z m57 2 c20 -8 21 -48 1 -64 -17 -14 -51 -5 -59 16 -3 9 -1 24 4 35 11
20 27 23 54 13z"/>
<path d="M1460 637 c0 -14 6 -24 15 -24 9 0 15 10 15 24 0 14 -6 23 -15 23 -9
0 -15 -9 -15 -23z"/>
<path d="M1480 475 c0 -5 10 -21 21 -35 13 -17 17 -18 10 -5 -17 33 -31 51
-31 40z"/>
</g>
</svg>
